<svg version="1.1" id="Layer_1" xmlns="http://www.w3.org/2000/svg" xmlns:xlink="http://www.w3.org/1999/xlink" x="0px" y="0px"
	 width="100%" viewBox="0 0 500 500" enable-background="new 0 0 500 500" xml:space="preserve">
<path fill="#000000" opacity="1.000000" stroke="none" 
	d="
M346.000000,501.000000 
	C230.666687,501.000000 115.833389,501.000000 1.000062,501.000000 
	C1.000041,334.333405 1.000041,167.666794 1.000021,1.000151 
	C167.666550,1.000101 334.333099,1.000101 500.999756,1.000050 
	C500.999817,167.666519 500.999817,334.333038 500.999908,500.999786 
	C449.500000,501.000000 398.000000,501.000000 346.000000,501.000000 
M171.889557,345.973633 
	C175.672760,345.979034 179.475662,345.744141 183.234085,346.052124 
	C187.691818,346.417389 191.900452,345.225128 193.556122,341.358154 
	C195.164261,337.602142 194.036697,333.252258 191.257278,329.259949 
	C194.141312,329.087372 197.025360,328.914825 200.603439,328.936462 
	C201.078278,328.901978 201.553116,328.867462 202.953690,328.972198 
	C235.273117,328.989624 267.592529,329.007050 299.939514,329.635193 
	C299.877136,329.829224 299.814789,330.023224 299.182770,330.540070 
	C298.606567,332.040924 298.089478,333.567688 297.444885,335.038544 
	C292.139099,347.146027 292.457581,359.532684 297.882599,371.147888 
	C303.887238,384.004089 314.867645,391.591858 328.935883,393.692719 
	C333.812012,394.420898 338.987793,393.142548 344.797546,392.928680 
	C346.569550,392.283112 348.341522,391.637543 350.540375,390.890106 
	C350.540375,390.890106 350.958984,390.758484 351.707428,390.926636 
	C360.974152,387.813507 367.629395,381.783356 372.108765,372.311554 
	C376.452698,366.280823 377.614349,359.358398 377.930542,351.305511 
	C375.891083,344.869385 373.851593,338.433258 371.959137,331.120850 
	C372.426208,327.075226 375.576263,329.047546 377.323608,329.099640 
	C401.242065,329.813110 419.262360,318.983704 432.996674,300.352173 
	C438.681641,292.640076 443.841217,284.357483 444.678864,273.807648 
	C444.790344,265.133820 445.671143,256.383728 444.821136,247.805176 
	C443.726166,236.754822 439.488739,226.599014 431.855072,217.339264 
	C425.612976,211.544403 419.370880,205.749542 412.853485,199.291687 
	C403.935974,193.058441 393.984833,190.730789 383.334503,191.159668 
	C392.540405,194.480713 401.746277,197.801773 411.286926,201.819717 
	C411.487701,203.214722 412.377319,205.128265 411.779633,205.922226 
	C407.237976,211.955704 400.077026,211.418930 393.786438,211.825241 
	C383.339996,212.500000 372.803497,212.328949 362.332062,211.880875 
	C354.988129,211.566605 347.532593,209.995560 344.104950,202.350235 
	C342.317230,198.362732 341.560059,193.767380 341.092743,189.366364 
	C340.302490,181.924545 341.778595,174.422775 339.132965,166.954697 
	C334.407104,153.614456 326.028259,144.114761 312.418030,140.105392 
	C302.965424,137.320786 300.236206,131.894623 305.729126,123.008514 
	C306.837006,122.376137 307.944855,121.743767 309.910614,121.000725 
	C311.927338,121.035103 313.944031,121.069481 316.304688,121.795769 
	C321.986359,123.887009 328.236694,125.074516 333.249451,128.228790 
	C353.030975,140.676224 364.500549,158.482010 366.050690,182.225143 
	C366.270813,185.596664 367.422607,188.907349 368.143188,192.246201 
	C368.766541,192.112244 369.389862,191.978287 370.013184,191.844315 
	C369.604462,185.363007 370.117737,178.655563 368.595154,172.447418 
	C365.421448,159.506790 361.025452,146.784409 351.842133,136.689972 
	C347.524261,131.943771 341.986938,128.307007 336.569641,124.009537 
	C336.569641,124.009537 336.112091,123.957794 335.857971,123.328880 
	C334.239258,122.275932 332.620514,121.222984 330.355286,119.882759 
	C324.652069,114.448822 317.644379,111.948784 309.667236,110.115990 
	C273.037048,103.227173 244.106171,114.953751 223.808685,145.589371 
	C221.115448,144.904099 219.020844,144.371155 216.637207,143.190277 
	C177.212372,126.567345 131.325577,148.056747 127.556549,201.761139 
	C126.027237,202.167496 124.358223,202.350296 122.928848,203.034027 
	C115.009956,206.821991 105.658058,208.071533 99.252655,215.987274 
	C71.783791,234.927994 65.008949,272.866272 82.949944,301.779724 
	C82.841156,302.219818 82.732361,302.659912 82.462624,303.038300 
	C82.462624,303.038300 82.329292,303.147522 81.714691,303.072266 
	C81.453255,303.357422 81.191818,303.642578 80.295822,304.230469 
	C77.467667,306.742889 74.519920,309.135162 71.843239,311.799744 
	C68.855949,314.773529 69.214096,317.896454 72.258530,320.655823 
	C75.377525,323.482819 78.607864,326.186981 82.089645,329.572754 
	C94.718819,341.079742 107.347984,352.586731 120.045540,364.779755 
	C122.114479,367.085907 124.091400,369.483276 126.269859,371.680847 
	C132.459366,377.924530 134.859512,377.571686 139.730103,369.921814 
	C141.160248,367.673553 142.590393,365.425262 144.709381,362.858032 
	C147.740845,356.442871 149.634827,349.832611 149.093201,342.590057 
	C148.759750,338.130768 149.023468,333.626862 149.929993,328.950684 
	C154.273987,329.127228 158.617981,329.303741 162.516479,329.991058 
	C157.933578,332.198120 158.396530,336.621368 159.249664,340.099609 
	C159.780457,342.263702 162.852448,344.148285 165.189163,345.404572 
	C166.741104,346.238892 169.009140,345.741180 171.889557,345.973633 
M68.817528,290.381348 
	C67.585442,289.058655 66.396706,287.692169 65.113243,286.421326 
	C61.113838,282.461273 57.407608,278.088196 52.913071,274.796356 
	C50.788109,273.240021 46.838058,272.854797 44.252472,273.661621 
	C42.142731,274.319946 38.776417,276.354218 40.057098,281.011719 
	C39.519508,284.036530 40.429497,286.338165 42.860870,288.408264 
	C47.324890,292.209076 51.572510,296.270813 55.809689,300.328888 
	C58.718410,303.114655 61.748470,305.137604 65.734642,302.598480 
	C70.430046,299.607544 71.217506,296.384003 68.817528,290.381348 
M146.832291,384.324005 
	C152.576508,390.065857 158.105103,396.049103 164.152679,401.451355 
	C167.346512,404.304413 173.332596,403.323059 175.806580,400.445801 
	C177.969116,397.930786 177.168915,391.702637 174.306091,388.829041 
	C170.194641,384.702057 165.874512,380.760071 162.024612,376.402405 
	C158.670410,372.605774 154.971588,372.081757 150.600372,373.867462 
	C145.993546,375.749420 145.570740,379.494751 146.832291,384.324005 
z"/>
<path fill="#C2E1FC" opacity="1.000000" stroke="none" 
	d="
M216.926254,143.838211 
	C219.020844,144.371155 221.115448,144.904099 223.808685,145.589371 
	C244.106171,114.953751 273.037048,103.227173 309.603943,110.783844 
	C307.966766,111.950142 306.393707,112.875557 304.818970,112.878387 
	C293.858032,112.898109 284.493073,116.903862 276.230499,123.863724 
	C262.138397,135.734070 255.615753,150.664124 257.770782,169.175339 
	C258.047180,171.549469 257.808655,173.983536 257.808655,177.569183 
	C255.787506,175.898010 254.753372,174.946762 253.623886,174.126877 
	C250.024063,171.513779 246.645386,168.444397 242.723618,166.452225 
	C223.895859,156.888092 204.443527,169.076859 203.904404,190.198563 
	C203.517242,205.367111 208.026291,218.832428 217.384766,230.389435 
	C229.210190,244.992905 244.678665,253.756195 263.764862,253.904907 
	C306.404480,254.237198 349.048859,254.122498 391.690338,253.951340 
	C406.295013,253.892731 417.512024,246.954407 425.011658,234.639938 
	C428.123871,229.529602 429.818909,223.556198 432.158386,217.975281 
	C439.488739,226.599014 443.726166,236.754822 444.821136,247.805176 
	C445.671143,256.383728 444.790344,265.133820 444.294647,273.708649 
	C443.857117,273.452576 443.840210,273.264252 443.740021,273.147369 
	C443.642487,273.033569 443.338562,272.919006 443.331421,272.930664 
	C442.651611,274.044525 441.934540,275.141144 441.338593,276.299927 
	C431.311737,295.796539 415.689606,307.748383 393.747498,310.128998 
	C383.253021,311.267609 372.581665,310.776062 361.781097,310.989014 
	C361.571777,310.955231 361.149811,310.912567 361.083008,310.592285 
	C360.349396,309.180328 359.682556,308.088654 358.967529,306.688324 
	C358.304443,305.575104 357.689545,304.770569 357.042450,303.676178 
	C356.699066,302.915039 356.387909,302.443695 356.025146,301.687134 
	C355.660522,300.929901 355.347504,300.457886 354.998169,299.669617 
	C354.319916,298.556610 353.678040,297.759857 353.023010,296.982788 
	C353.009918,297.002441 353.045715,296.965363 352.995422,296.618958 
	C351.301666,293.843811 349.658173,291.415100 348.007324,288.993195 
	C348.000000,289.000000 348.016968,288.986115 347.966919,288.675201 
	C347.337189,287.816406 346.757507,287.268524 346.018799,286.530396 
	C345.592194,286.121796 345.285706,286.010803 344.927734,285.642212 
	C344.850159,284.551514 344.785217,283.825745 344.705383,282.864563 
	C344.553162,282.323090 344.325378,282.116852 343.863525,281.700378 
	C337.476746,274.264862 331.938354,274.651794 326.903381,282.683411 
	C320.951935,292.176971 315.100067,301.732971 308.730713,311.173584 
	C305.427734,311.041534 302.599030,310.960236 299.770294,310.959625 
	C257.985413,310.950897 216.199707,311.086639 174.416336,310.833221 
	C166.572876,310.785675 158.510513,310.044861 152.016998,304.609253 
	C157.378067,299.674408 162.620102,295.107758 167.676941,290.344452 
	C171.771347,286.487732 172.013977,281.807678 168.621155,278.057770 
	C165.393143,274.490051 161.210541,274.463776 156.777435,278.454224 
	C152.463135,282.337677 148.290070,286.412964 144.400467,290.716339 
	C142.820084,292.464813 142.152267,295.038177 140.729584,297.145569 
	C138.458145,294.799896 136.279388,292.711090 134.632980,290.264069 
	C119.096451,267.172180 124.853989,237.030655 147.612305,219.769394 
	C149.220413,218.549698 150.826767,215.709427 150.563889,213.893417 
	C148.143387,197.172729 150.873260,181.841156 161.233932,168.107452 
	C171.023727,155.130478 183.765396,147.164322 199.876556,144.949203 
	C205.504318,144.175461 211.239914,144.185898 216.926254,143.838211 
z"/>
<path fill="#EAF4FE" opacity="1.000000" stroke="none" 
	d="
M432.006744,217.657272 
	C429.818909,223.556198 428.123871,229.529602 425.011658,234.639938 
	C417.512024,246.954407 406.295013,253.892731 391.690338,253.951340 
	C349.048859,254.122498 306.404480,254.237198 263.764862,253.904907 
	C244.678665,253.756195 229.210190,244.992905 217.384766,230.389435 
	C208.026291,218.832428 203.517242,205.367111 203.904404,190.198563 
	C204.443527,169.076859 223.895859,156.888092 242.723618,166.452225 
	C246.645386,168.444397 250.024063,171.513779 253.623886,174.126877 
	C254.753372,174.946762 255.787506,175.898010 257.808655,177.569183 
	C257.808655,173.983536 258.047180,171.549469 257.770782,169.175339 
	C255.615753,150.664124 262.138397,135.734070 276.230499,123.863724 
	C284.493073,116.903862 293.858032,112.898109 304.818970,112.878387 
	C306.393707,112.875557 307.966766,111.950142 309.779297,111.145966 
	C317.644379,111.948784 324.652069,114.448822 330.655212,120.400505 
	C329.741547,124.482918 327.415283,122.528160 325.278564,122.174232 
	C322.198059,121.663986 319.069061,121.446365 315.960754,121.103867 
	C313.944031,121.069481 311.927338,121.035103 309.236481,120.791428 
	C305.879639,119.331261 304.996155,120.577431 305.044556,123.116882 
	C300.236206,131.894623 302.965424,137.320786 312.418030,140.105392 
	C326.028259,144.114761 334.407104,153.614456 339.132965,166.954697 
	C341.778595,174.422775 340.302490,181.924545 341.092743,189.366364 
	C341.560059,193.767380 342.317230,198.362732 344.104950,202.350235 
	C347.532593,209.995560 354.988129,211.566605 362.332062,211.880875 
	C372.803497,212.328949 383.339996,212.500000 393.786438,211.825241 
	C400.077026,211.418930 407.237976,211.955704 411.779633,205.922226 
	C412.377319,205.128265 411.487701,203.214722 411.316895,201.216568 
	C411.940857,200.393829 412.534821,200.174240 413.128784,199.954651 
	C419.370880,205.749542 425.612976,211.544403 432.006744,217.657272 
z"/>
<path fill="#79BCF5" opacity="1.000000" stroke="none" 
	d="
M151.817978,304.892456 
	C158.510513,310.044861 166.572876,310.785675 174.416336,310.833221 
	C216.199707,311.086639 257.985413,310.950897 299.770294,310.959625 
	C302.599030,310.960236 305.427734,311.041534 308.709198,311.473877 
	C309.151825,312.266174 309.141724,312.669922 308.951019,313.369202 
	C305.764435,319.182251 302.758453,324.699738 299.752472,330.217194 
	C299.814789,330.023224 299.877136,329.829224 299.633911,329.046875 
	C293.211517,328.288208 287.094757,328.117798 280.730042,327.710724 
	C278.996399,327.629761 277.510620,327.785492 275.643372,327.954926 
	C274.498596,327.958710 273.735321,327.948730 272.654114,327.679260 
	C271.528351,327.280762 270.720734,327.021210 269.912750,327.020264 
	C249.853699,326.996948 229.794571,326.983826 209.735657,327.041351 
	C208.494965,327.044891 207.255981,327.642548 205.663452,327.977539 
	C204.216461,328.271851 203.122208,328.552399 202.027954,328.832947 
	C201.553116,328.867462 201.078278,328.901978 200.253174,328.489929 
	C198.279739,327.067749 196.755264,325.496216 195.018143,325.208496 
	C177.312820,322.276123 159.572876,319.552734 141.635773,316.544373 
	C139.680435,314.139069 138.030457,311.871735 136.165878,309.797333 
	C129.311508,302.171600 120.062859,299.296844 110.351189,296.734314 
	C108.112244,293.386993 106.035805,290.363617 104.364197,287.228577 
	C111.946884,286.648285 113.403427,285.079132 113.397949,277.723755 
	C113.668755,271.231934 113.792152,265.084656 113.720474,258.939667 
	C113.671898,254.775146 110.918243,252.477463 107.262245,251.775543 
	C104.101044,251.168610 100.893257,251.750153 99.501083,255.928528 
	C98.707458,258.554413 97.932602,260.924683 97.767311,263.336700 
	C97.476700,267.577667 97.558899,271.844208 97.231133,275.871796 
	C89.913239,258.823242 90.054100,242.077957 97.263672,225.305130 
	C98.547379,222.318619 99.088188,219.012787 99.972031,215.854401 
	C105.658058,208.071533 115.009956,206.821991 122.928848,203.034027 
	C124.358223,202.350296 126.027237,202.167496 127.556549,201.761139 
	C131.325577,148.056747 177.212372,126.567345 216.781738,143.514252 
	C211.239914,144.185898 205.504318,144.175461 199.876556,144.949203 
	C183.765396,147.164322 171.023727,155.130478 161.233932,168.107452 
	C150.873260,181.841156 148.143387,197.172729 150.563889,213.893417 
	C150.826767,215.709427 149.220413,218.549698 147.612305,219.769394 
	C124.853989,237.030655 119.096451,267.172180 134.632980,290.264069 
	C136.279388,292.711090 138.458145,294.799896 140.865295,297.442749 
	C143.008255,302.891998 146.481064,305.275055 151.817978,304.892456 
z"/>
<path fill="#2B95F7" opacity="1.000000" stroke="none" 
	d="
M309.131622,313.073639 
	C309.141724,312.669922 309.151825,312.266174 309.183472,311.562195 
	C315.100067,301.732971 320.951935,292.176971 326.903381,282.683411 
	C331.938354,274.651794 337.476746,274.264862 343.913208,281.921509 
	C344.237610,282.738159 344.442230,282.953918 344.720276,283.099976 
	C344.785217,283.825745 344.850159,284.551514 344.622986,285.778717 
	C338.390564,296.200439 332.342285,306.058777 326.589447,316.086639 
	C325.230957,318.454620 324.338379,321.352997 324.133118,324.075348 
	C323.073517,338.127869 333.908813,350.764984 348.016479,352.501190 
	C348.394318,353.225372 348.727112,353.671600 349.012238,354.411682 
	C348.634521,355.127319 348.304474,355.549103 347.619141,356.020325 
	C342.310394,360.382843 341.330841,366.564667 345.030334,369.988647 
	C345.001068,369.997040 345.014160,369.937531 345.112915,370.174805 
	C345.485046,370.609100 345.758423,370.806091 346.011993,371.004822 
	C345.992218,371.006531 346.001587,370.967987 346.094604,371.349396 
	C352.891083,375.128540 357.750641,372.556610 358.993958,364.980530 
	C359.001160,365.004242 358.953674,364.989746 359.313110,364.915680 
	C360.102051,363.530792 360.531525,362.219940 361.012177,360.684021 
	C361.063324,360.458923 361.226776,360.027161 361.505737,359.825317 
	C362.522705,357.433075 363.260651,355.242706 364.455078,353.042603 
	C369.193604,352.738831 373.475708,352.444763 377.757812,352.150696 
	C377.614349,359.358398 376.452698,366.280823 371.650787,372.619568 
	C370.800720,372.932404 370.408600,372.937225 369.847717,372.831543 
	C369.449921,373.145569 369.220978,373.570190 368.995850,373.997375 
	C368.999634,373.999939 368.992310,373.991547 368.630981,374.034119 
	C358.724731,378.903473 348.842621,380.801392 338.058868,379.112946 
	C323.614075,376.851349 309.221588,362.520264 306.865051,348.159119 
	C305.235474,338.228394 306.869324,328.767670 308.719879,319.184814 
	C309.104034,317.195435 309.006927,315.113129 309.131622,313.073639 
z"/>
<path fill="#64B8FB" opacity="1.000000" stroke="none" 
	d="
M347.971405,352.223206 
	C333.908813,350.764984 323.073517,338.127869 324.133118,324.075348 
	C324.338379,321.352997 325.230957,318.454620 326.589447,316.086639 
	C332.342285,306.058777 338.390564,296.200439 344.635620,286.143646 
	C345.285706,286.010803 345.592194,286.121796 346.005737,286.875916 
	C346.773438,287.936493 347.395203,288.461304 348.016968,288.986115 
	C348.016968,288.986115 348.000000,289.000000 347.999603,289.382507 
	C348.225708,293.185333 349.063660,296.177155 353.045715,296.965363 
	C353.045715,296.965363 353.009918,297.002441 353.015533,297.336243 
	C353.692261,298.442017 354.363403,299.213959 355.034515,299.985901 
	C355.347504,300.457886 355.660522,300.929901 355.807861,301.867126 
	C356.119690,302.876923 356.597198,303.421448 357.074677,303.966003 
	C357.689545,304.770569 358.304443,305.575104 358.724213,306.912170 
	C359.402679,308.600616 360.276245,309.756592 361.149811,310.912567 
	C361.149811,310.912567 361.571777,310.955231 361.830688,311.337250 
	C365.646515,317.354675 369.810822,322.720184 369.456390,329.988159 
	C369.425659,330.618011 370.989166,331.325623 371.812103,331.997131 
	C373.851593,338.433258 375.891083,344.869385 377.844177,351.728088 
	C373.475708,352.444763 369.193604,352.738831 364.195435,353.009460 
	C363.305023,352.980896 363.130646,352.975769 362.978943,352.522156 
	C363.375214,346.360321 363.903687,340.566345 355.873291,339.272339 
	C350.127075,342.999603 350.127075,342.999603 349.555969,351.048401 
	C348.834961,351.476471 348.403198,351.849823 347.971405,352.223206 
z"/>
<path fill="#2074E9" opacity="1.000000" stroke="none" 
	d="
M308.951019,313.369202 
	C309.006927,315.113129 309.104034,317.195435 308.719879,319.184814 
	C306.869324,328.767670 305.235474,338.228394 306.865051,348.159119 
	C309.221588,362.520264 323.614075,376.851349 338.058868,379.112946 
	C348.842621,380.801392 358.724731,378.903473 368.591675,374.379944 
	C368.269409,375.630890 367.795532,376.779846 366.952972,377.493347 
	C361.667328,381.969025 356.299561,386.347687 350.958984,390.758484 
	C350.958984,390.758484 350.540375,390.890106 349.949707,390.925964 
	C347.581573,391.568115 345.804138,392.174408 344.026703,392.780701 
	C338.987793,393.142548 333.812012,394.420898 328.935883,393.692719 
	C314.867645,391.591858 303.887238,384.004089 297.882599,371.147888 
	C292.457581,359.532684 292.139099,347.146027 297.444885,335.038544 
	C298.089478,333.567688 298.606567,332.040924 299.467621,330.378632 
	C302.758453,324.699738 305.764435,319.182251 308.951019,313.369202 
z"/>
<path fill="#3493F4" opacity="1.000000" stroke="none" 
	d="
M103.959366,287.340271 
	C106.035805,290.363617 108.112244,293.386993 109.854202,296.803894 
	C106.759193,297.414734 103.970322,297.453247 101.243927,297.885712 
	C95.157906,298.851105 89.103050,300.012939 83.035500,301.094757 
	C65.008949,272.866272 71.783791,234.927994 99.612343,215.920837 
	C99.088188,219.012787 98.547379,222.318619 97.263672,225.305130 
	C90.054100,242.077957 89.913239,258.823242 97.377396,276.255066 
	C97.784904,281.569641 99.485298,285.273499 103.959366,287.340271 
z"/>
<path fill="#FCCD28" opacity="1.000000" stroke="none" 
	d="
M144.020538,363.177002 
	C142.590393,365.425262 141.160248,367.673553 139.372528,369.511414 
	C138.584579,361.498657 137.676498,354.086548 130.999084,348.648438 
	C131.001358,347.891510 131.002441,347.458954 131.058060,346.635864 
	C133.694763,335.685333 126.864243,320.769043 116.975647,316.657257 
	C111.265106,314.282715 105.139053,311.986908 98.760185,315.889954 
	C98.050880,315.518768 97.586563,315.254242 97.045273,314.649017 
	C93.685555,310.543457 90.402817,306.778656 87.422119,302.818512 
	C102.083672,296.511597 121.655121,298.475800 133.661987,310.113495 
	C136.576233,312.938110 139.223709,316.037994 141.996613,319.006287 
	C141.999390,319.001221 141.988235,319.004395 141.960968,319.394165 
	C143.632309,322.849976 145.330887,325.915985 147.013794,328.990479 
	C146.998108,328.998993 147.019562,328.969818 146.968750,329.408752 
	C148.749359,340.048798 148.796219,350.085083 144.387054,359.776520 
	C143.938858,360.761688 144.127457,362.036560 144.020538,363.177002 
z"/>
<path fill="#7CBDF3" opacity="1.000000" stroke="none" 
	d="
M371.885620,331.558990 
	C370.989166,331.325623 369.425659,330.618011 369.456390,329.988159 
	C369.810822,322.720184 365.646515,317.354675 362.039978,311.371033 
	C372.581665,310.776062 383.253021,311.267609 393.747498,310.128998 
	C415.689606,307.748383 431.311737,295.796539 441.338593,276.299927 
	C441.934540,275.141144 442.651611,274.044525 443.331421,272.930664 
	C443.338562,272.919006 443.642487,273.033569 443.740021,273.147369 
	C443.840210,273.264252 443.857117,273.452576 443.926605,273.878662 
	C443.841217,284.357483 438.681641,292.640076 432.996674,300.352173 
	C419.262360,318.983704 401.242065,329.813110 377.323608,329.099640 
	C375.576263,329.047546 372.426208,327.075226 371.885620,331.558990 
z"/>
<path fill="#FBC628" opacity="1.000000" stroke="none" 
	d="
M97.122253,314.989746 
	C97.586563,315.254242 98.050880,315.518768 99.054863,316.043182 
	C105.237572,321.896332 110.854530,327.516174 116.531647,333.074615 
	C121.319351,337.762238 126.176895,342.378540 131.003525,347.026428 
	C131.002441,347.458954 131.001358,347.891510 130.851379,348.971985 
	C127.871674,354.996094 126.337646,361.333160 119.977142,364.093719 
	C107.347984,352.586731 94.718819,341.079742 82.126755,328.969788 
	C85.357246,321.903107 90.648468,317.785248 97.122253,314.989746 
z"/>
<path fill="#F39319" opacity="1.000000" stroke="none" 
	d="
M146.577896,384.025452 
	C145.570740,379.494751 145.993546,375.749420 150.600372,373.867462 
	C154.971588,372.081757 158.670410,372.605774 162.024612,376.402405 
	C165.874512,380.760071 170.194641,384.702057 174.306091,388.829041 
	C177.168915,391.702637 177.969116,397.930786 175.806580,400.445801 
	C173.332596,403.323059 167.346512,404.304413 164.152679,401.451355 
	C158.105103,396.049103 152.576508,390.065857 146.577896,384.025452 
z"/>
<path fill="#3791E9" opacity="1.000000" stroke="none" 
	d="
M141.842651,316.770874 
	C159.572876,319.552734 177.312820,322.276123 195.018143,325.208496 
	C196.755264,325.496216 198.279739,327.067749 199.906158,328.392822 
	C197.025360,328.914825 194.141312,329.087372 190.606354,329.620667 
	C187.322296,329.974792 184.689163,329.968201 181.781799,329.631104 
	C175.325729,329.360474 169.143845,329.420380 162.961975,329.480286 
	C158.617981,329.303741 154.273987,329.127228 149.146118,328.968506 
	C147.914688,328.980804 147.467133,328.975311 147.019562,328.969818 
	C147.019562,328.969818 146.998108,328.998993 147.002090,328.619202 
	C145.333466,325.161041 143.660843,322.082733 141.988235,319.004395 
	C141.988235,319.004395 141.999390,319.001221 141.997955,318.632721 
	C141.945221,317.766418 141.893936,317.268646 141.842651,316.770874 
z"/>
<path fill="#F79B18" opacity="1.000000" stroke="none" 
	d="
M97.045273,314.649017 
	C90.648468,317.785248 85.357246,321.903107 81.976669,328.655823 
	C78.607864,326.186981 75.377525,323.482819 72.258530,320.655823 
	C69.214096,317.896454 68.855949,314.773529 71.843239,311.799744 
	C74.519920,309.135162 77.467667,306.742889 80.766396,304.231384 
	C81.601074,303.870728 81.965187,303.509125 82.329292,303.147522 
	C82.329292,303.147522 82.462624,303.038300 82.994476,303.118164 
	C84.724251,303.136658 85.922157,303.075226 87.120071,303.013794 
	C90.402817,306.778656 93.685555,310.543457 97.045273,314.649017 
z"/>
<path fill="#F1F5FA" opacity="1.000000" stroke="none" 
	d="
M316.132721,121.449814 
	C319.069061,121.446365 322.198059,121.663986 325.278564,122.174232 
	C327.415283,122.528160 329.741547,124.482918 330.978485,120.544144 
	C332.620514,121.222984 334.239258,122.275932 335.681335,123.701584 
	C335.230896,124.680801 334.891357,125.272148 334.744629,125.907982 
	C334.718689,126.020370 335.497131,126.318367 335.904083,126.530655 
	C336.270111,125.742935 336.636169,124.955215 337.002197,124.167496 
	C341.986938,128.307007 347.524261,131.943771 351.842133,136.689972 
	C361.025452,146.784409 365.421448,159.506790 368.595154,172.447418 
	C370.117737,178.655563 369.604462,185.363007 370.013184,191.844315 
	C369.389862,191.978287 368.766541,192.112244 368.143188,192.246201 
	C367.422607,188.907349 366.270813,185.596664 366.050690,182.225143 
	C364.500549,158.482010 353.030975,140.676224 333.249451,128.228790 
	C328.236694,125.074516 321.986359,123.887009 316.132721,121.449814 
z"/>
<path fill="#F79B18" opacity="1.000000" stroke="none" 
	d="
M120.011337,364.436737 
	C126.337646,361.333160 127.871674,354.996094 130.850189,349.296417 
	C137.676498,354.086548 138.584579,361.498657 139.012817,369.535522 
	C134.859512,377.571686 132.459366,377.924530 126.269859,371.680847 
	C124.091400,369.483276 122.114479,367.085907 120.011337,364.436737 
z"/>
<path fill="#EF9719" opacity="1.000000" stroke="none" 
	d="
M68.796173,291.078033 
	C71.217506,296.384003 70.430046,299.607544 65.734642,302.598480 
	C61.748470,305.137604 58.718410,303.114655 55.809689,300.328888 
	C51.572510,296.270813 47.324890,292.209076 42.860870,288.408264 
	C40.429497,286.338165 39.519508,284.036530 40.419556,280.745941 
	C48.816563,287.458435 58.056408,291.250671 68.796173,291.078033 
z"/>
<path fill="#F8CF2D" opacity="1.000000" stroke="none" 
	d="
M182.056015,329.961609 
	C184.689163,329.968201 187.322296,329.974792 190.391998,329.996399 
	C194.036697,333.252258 195.164261,337.602142 193.556122,341.358154 
	C191.900452,345.225128 187.691818,346.417389 183.234085,346.052124 
	C179.475662,345.744141 175.672760,345.979034 171.438354,345.542786 
	C174.676773,340.061798 178.366394,335.011719 182.056015,329.961609 
z"/>
<path fill="#FBC628" opacity="1.000000" stroke="none" 
	d="
M68.806854,290.729675 
	C58.056408,291.250671 48.816563,287.458435 40.497833,280.352539 
	C38.776417,276.354218 42.142731,274.319946 44.252472,273.661621 
	C46.838058,272.854797 50.788109,273.240021 52.913071,274.796356 
	C57.407608,278.088196 61.113838,282.461273 65.113243,286.421326 
	C66.396706,287.692169 67.585442,289.058655 68.806854,290.729675 
z"/>
<path fill="#EE9A1C" opacity="1.000000" stroke="none" 
	d="
M181.781799,329.631104 
	C178.366394,335.011719 174.676773,340.061798 170.971893,345.475830 
	C169.009140,345.741180 166.741104,346.238892 165.189163,345.404572 
	C162.852448,344.148285 159.780457,342.263702 159.249664,340.099609 
	C158.396530,336.621368 157.933578,332.198120 162.739227,329.735657 
	C169.143845,329.420380 175.325729,329.360474 181.781799,329.631104 
z"/>
<path fill="#CDC571" opacity="1.000000" stroke="none" 
	d="
M87.422119,302.818481 
	C85.922157,303.075226 84.724251,303.136658 83.074951,303.149048 
	C82.732361,302.659912 82.841156,302.219818 82.992722,301.437256 
	C89.103050,300.012939 95.157906,298.851105 101.243927,297.885712 
	C103.970322,297.453247 106.759193,297.414734 110.016708,297.127899 
	C120.062859,299.296844 129.311508,302.171600 136.165878,309.797333 
	C138.030457,311.871735 139.680435,314.139069 141.635773,316.544342 
	C141.893936,317.268646 141.945221,317.766418 141.995178,318.637756 
	C139.223709,316.037994 136.576233,312.938110 133.661987,310.113495 
	C121.655121,298.475800 102.083672,296.511597 87.422119,302.818481 
z"/>
<path fill="#ABD8F9" opacity="1.000000" stroke="none" 
	d="
M280.977966,327.947388 
	C287.094757,328.117798 293.211517,328.288208 299.620117,328.741516 
	C267.592529,329.007050 235.273117,328.989624 202.490814,328.902588 
	C203.122208,328.552399 204.216461,328.271851 206.129807,327.993835 
	C228.956619,327.977173 250.964325,327.957977 272.972046,327.938782 
	C273.735321,327.948730 274.498596,327.958710 276.055237,327.975891 
	C278.225067,327.971191 279.601532,327.959320 280.977966,327.947388 
z"/>
<path fill="#F1F5FA" opacity="1.000000" stroke="none" 
	d="
M412.991150,199.623169 
	C412.534821,200.174240 411.940857,200.393829 411.149536,200.868118 
	C401.746277,197.801773 392.540405,194.480713 383.334503,191.159668 
	C393.984833,190.730789 403.935974,193.058441 412.991150,199.623169 
z"/>
<path fill="#3773C4" opacity="1.000000" stroke="none" 
	d="
M351.333191,390.842529 
	C356.299561,386.347687 361.667328,381.969025 366.952972,377.493347 
	C367.795532,376.779846 368.269409,375.630890 368.953003,374.337402 
	C368.992310,373.991547 368.999634,373.999939 369.217163,373.877106 
	C369.628601,373.483521 369.822540,373.212799 370.016479,372.942078 
	C370.408600,372.937225 370.800720,372.932404 371.486572,372.941772 
	C367.629395,381.783356 360.974152,387.813507 351.333191,390.842529 
z"/>
<path fill="#CDC571" opacity="1.000000" stroke="none" 
	d="
M146.968750,329.408752 
	C147.467133,328.975311 147.914688,328.980804 148.690643,329.064636 
	C149.023468,333.626862 148.759750,338.130768 149.093201,342.590057 
	C149.634827,349.832611 147.740845,356.442871 144.364960,363.017517 
	C144.127457,362.036560 143.938858,360.761688 144.387054,359.776520 
	C148.796219,350.085083 148.749359,340.048798 146.968750,329.408752 
z"/>
<path fill="#F1F5FA" opacity="1.000000" stroke="none" 
	d="
M305.386841,123.062698 
	C304.996155,120.577431 305.879639,119.331261 308.807556,120.846764 
	C307.944855,121.743767 306.837006,122.376137 305.386841,123.062698 
z"/>
<path fill="#3773C4" opacity="1.000000" stroke="none" 
	d="
M344.412109,392.854675 
	C345.804138,392.174408 347.581573,391.568115 349.736267,390.976868 
	C348.341522,391.637543 346.569550,392.283112 344.412109,392.854675 
z"/>
<path fill="#EAF4FE" opacity="1.000000" stroke="none" 
	d="
M336.785919,124.088516 
	C336.636169,124.955215 336.270111,125.742935 335.904083,126.530655 
	C335.497131,126.318367 334.718689,126.020370 334.744629,125.907982 
	C334.891357,125.272148 335.230896,124.680801 335.808411,124.016045 
	C336.112091,123.957794 336.569641,124.009537 336.785919,124.088516 
z"/>
<path fill="#CDC571" opacity="1.000000" stroke="none" 
	d="
M82.021988,303.109894 
	C81.965187,303.509125 81.601074,303.870728 81.083679,304.080017 
	C81.191818,303.642578 81.453255,303.357422 82.021988,303.109894 
z"/>
<path fill="#F6D337" opacity="1.000000" stroke="none" 
	d="
M152.016998,304.609253 
	C146.481064,305.275055 143.008255,302.891998 141.204956,297.533386 
	C142.152267,295.038177 142.820084,292.464813 144.400467,290.716339 
	C148.290070,286.412964 152.463135,282.337677 156.777435,278.454224 
	C161.210541,274.463776 165.393143,274.490051 168.621155,278.057770 
	C172.013977,281.807678 171.771347,286.487732 167.676941,290.344452 
	C162.620102,295.107758 157.378067,299.674408 152.016998,304.609253 
z"/>
<path fill="#7CBDF3" opacity="1.000000" stroke="none" 
	d="
M352.995422,296.618958 
	C349.063660,296.177155 348.225708,293.185333 348.006958,289.375671 
	C349.658173,291.415100 351.301666,293.843811 352.995422,296.618958 
z"/>
<path fill="#7CBDF3" opacity="1.000000" stroke="none" 
	d="
M361.083008,310.592285 
	C360.276245,309.756592 359.402679,308.600616 358.772400,307.220825 
	C359.682556,308.088654 360.349396,309.180328 361.083008,310.592285 
z"/>
<path fill="#7CBDF3" opacity="1.000000" stroke="none" 
	d="
M354.998169,299.669617 
	C354.363403,299.213959 353.692261,298.442017 353.028625,297.316589 
	C353.678040,297.759857 354.319916,298.556610 354.998169,299.669617 
z"/>
<path fill="#7CBDF3" opacity="1.000000" stroke="none" 
	d="
M357.042450,303.676178 
	C356.597198,303.421448 356.119690,302.876923 355.859497,302.152374 
	C356.387909,302.443695 356.699066,302.915039 357.042450,303.676178 
z"/>
<path fill="#7CBDF3" opacity="1.000000" stroke="none" 
	d="
M347.966919,288.675201 
	C347.395203,288.461304 346.773438,287.936493 346.164764,287.066162 
	C346.757507,287.268524 347.337189,287.816406 347.966919,288.675201 
z"/>
<path fill="#64B8FB" opacity="1.000000" stroke="none" 
	d="
M344.705383,282.864563 
	C344.442230,282.953918 344.237610,282.738159 344.056763,282.231628 
	C344.325378,282.116852 344.553162,282.323090 344.705383,282.864563 
z"/>
<path fill="#EE9A1C" opacity="1.000000" stroke="none" 
	d="
M104.364197,287.228577 
	C99.485298,285.273499 97.784904,281.569641 97.631226,276.483276 
	C97.558899,271.844208 97.476700,267.577667 97.767311,263.336700 
	C97.932602,260.924683 98.707458,258.554413 99.767662,256.218994 
	C102.651260,264.690552 106.219337,272.375458 113.167458,278.069244 
	C113.403427,285.079132 111.946884,286.648285 104.364197,287.228577 
z"/>
<path fill="#F2CD36" opacity="1.000000" stroke="none" 
	d="
M113.397949,277.723755 
	C106.219337,272.375458 102.651260,264.690552 100.060944,255.982147 
	C100.893257,251.750153 104.101044,251.168610 107.262245,251.775543 
	C110.918243,252.477463 113.671898,254.775146 113.720474,258.939667 
	C113.792152,265.084656 113.668755,271.231934 113.397949,277.723755 
z"/>
<path fill="#7CBDF3" opacity="1.000000" stroke="none" 
	d="
M272.654114,327.679291 
	C250.964325,327.957977 228.956619,327.977173 206.482544,327.980072 
	C207.255981,327.642548 208.494965,327.044891 209.735657,327.041351 
	C229.794571,326.983826 249.853699,326.996948 269.912750,327.020264 
	C270.720734,327.021210 271.528351,327.280762 272.654114,327.679291 
z"/>
<path fill="#7CBDF3" opacity="1.000000" stroke="none" 
	d="
M280.730042,327.710754 
	C279.601532,327.959320 278.225067,327.971191 276.436768,327.962158 
	C277.510620,327.785492 278.996399,327.629761 280.730042,327.710754 
z"/>
<path fill="#000000" opacity="1.000000" stroke="none" 
	d="
M349.845215,350.993744 
	C350.127075,342.999603 350.127075,342.999603 355.873291,339.272339 
	C363.903687,340.566345 363.375214,346.360321 362.642395,352.704407 
	C361.931030,355.565826 361.578918,357.796478 361.226776,360.027161 
	C361.226776,360.027161 361.063324,360.458923 360.696716,360.834381 
	C359.871307,362.469818 359.412506,363.729797 358.953674,364.989746 
	C358.953674,364.989746 359.001160,365.004242 358.664795,365.099121 
	C352.752625,372.835266 352.630493,372.892487 346.001587,370.967987 
	C346.001587,370.967987 345.992218,371.006531 345.946411,370.744659 
	C345.605133,370.301025 345.309662,370.119263 345.014160,369.937531 
	C345.014160,369.937531 345.001068,369.997040 345.019867,369.550446 
	C346.017242,364.726196 346.995850,360.348511 347.974426,355.970856 
	C348.304474,355.549103 348.634521,355.127319 349.335205,354.246338 
	C349.752350,352.855988 349.798767,351.924866 349.845215,350.993744 
z"/>
<path fill="#4691D5" opacity="1.000000" stroke="none" 
	d="
M347.619141,356.020325 
	C346.995850,360.348511 346.017242,364.726196 345.049133,369.542053 
	C341.330841,366.564667 342.310394,360.382843 347.619141,356.020325 
z"/>
<path fill="#4691D5" opacity="1.000000" stroke="none" 
	d="
M346.094604,371.349396 
	C352.630493,372.892487 352.752625,372.835266 358.657593,365.075378 
	C357.750641,372.556610 352.891083,375.128540 346.094604,371.349396 
z"/>
<path fill="#4691D5" opacity="1.000000" stroke="none" 
	d="
M361.505737,359.825317 
	C361.578918,357.796478 361.931030,355.565826 362.619720,353.152893 
	C363.130646,352.975769 363.305023,352.980896 363.739014,353.019165 
	C363.260651,355.242706 362.522705,357.433075 361.505737,359.825317 
z"/>
<path fill="#4691D5" opacity="1.000000" stroke="none" 
	d="
M349.555969,351.048401 
	C349.798767,351.924866 349.752350,352.855988 349.382935,353.952454 
	C348.727112,353.671600 348.394318,353.225372 348.016479,352.501190 
	C348.403198,351.849823 348.834961,351.476471 349.555969,351.048401 
z"/>
<path fill="#4691D5" opacity="1.000000" stroke="none" 
	d="
M359.313110,364.915680 
	C359.412506,363.729797 359.871307,362.469818 360.645569,361.059479 
	C360.531525,362.219940 360.102051,363.530792 359.313110,364.915680 
z"/>
<path fill="#2074E9" opacity="1.000000" stroke="none" 
	d="
M369.847687,372.831543 
	C369.822540,373.212799 369.628601,373.483521 369.213348,373.874512 
	C369.220978,373.570190 369.449921,373.145569 369.847687,372.831543 
z"/>
<path fill="#4691D5" opacity="1.000000" stroke="none" 
	d="
M345.112915,370.174805 
	C345.309662,370.119263 345.605133,370.301025 345.966187,370.742950 
	C345.758423,370.806091 345.485046,370.609100 345.112915,370.174805 
z"/>
<path fill="#FDE16A" opacity="1.000000" stroke="none" 
	d="
M131.058060,346.635864 
	C126.176895,342.378540 121.319351,337.762238 116.531647,333.074615 
	C110.854530,327.516174 105.237572,321.896332 99.299858,316.149841 
	C105.139053,311.986908 111.265106,314.282715 116.975647,316.657257 
	C126.864243,320.769043 133.694763,335.685333 131.058060,346.635864 
z"/>
<path fill="#CDC571" opacity="1.000000" stroke="none" 
	d="
M141.960968,319.394165 
	C143.660843,322.082733 145.333466,325.161041 147.017761,328.610687 
	C145.330887,325.915985 143.632309,322.849976 141.960968,319.394165 
z"/>
</svg>